<?xml version="1.0" encoding="utf-8"?>
<!-- Generator: Adobe Illustrator 22.0.1, SVG Export Plug-In . SVG Version: 6.00 Build 0)  -->
<svg version="1.1" id="Calque_1" xmlns="http://www.w3.org/2000/svg" xmlns:xlink="http://www.w3.org/1999/xlink" x="0px" y="0px"
	 viewBox="0 0 479.1 475.9" style="enable-background:new 0 0 479.1 475.9;" xml:space="preserve">
<style type="text/css">
	.st0{fill:#FE0000;}
</style>
<title>Iban</title>
<path class="st0" d="M454.3,177.1c-31.8-49.7-99.7-67.7-152.7-43.1c-15.3,7.1-28.9,17.3-40,30c-8.8,10.2-15.7,22-20.2,34.7
	c-2.3,6.3-3.9,12.9-4.9,19.6c-0.7,4.8-1.6,10.3-1.6,15.4c-2.8-1.1-5.8-1.8-8.4-2.9c-4.7-1.9-9.1-4.3-13.3-7.2
	c-8.5-5.7-14.9-14.1-18.1-23.9c-5.4-17.8-0.3-37.1,13.2-49.9c19.8-18.3,50.9-17.2,73.6-31.7c15.1-9.8,25.2-25.7,27.6-43.6
	c2.2-17.9-3.6-35.9-15.7-49.2c-29.3-31.7-82.8-24-116-2.7c-49.7,31.8-67.7,99.7-43.1,152.7c7.1,15.3,17.3,28.9,30,40
	c10.2,8.8,22,15.7,34.7,20.2c6.3,2.3,12.9,3.9,19.6,4.9c4,0.6,8.5,1.3,12.9,1.5c-1.1,2.9-1.9,6.1-3.1,8.8c-1.9,4.7-4.3,9.1-7.2,13.3
	c-5.7,8.5-14.1,14.9-23.9,18.1c-17.8,5.4-37.1,0.3-49.9-13.2c-18.3-19.8-17.2-50.9-31.7-73.6c-9.8-15.1-25.7-25.2-43.6-27.6
	c-17.9-2.2-35.9,3.6-49.2,15.7c-31.7,29.3-24,82.8-2.7,116c31.8,49.7,99.7,67.7,152.7,43.1c15.3-7.1,28.9-17.3,40-30
	c8.8-10.2,15.7-22,20.2-34.7c2.3-6.3,3.9-12.9,4.9-19.6c0.7-4.7,1.6-10.1,1.6-15.2c2.6,0.9,5.3,1.7,7.7,2.7
	c4.7,1.9,9.1,4.3,13.3,7.2c8.5,5.7,14.9,14.1,18.1,23.9c5.4,17.8,0.3,37.1-13.2,49.9c-19.8,18.3-50.9,17.2-73.6,31.7
	c-15.1,9.8-25.2,25.7-27.6,43.6c-2.2,17.9,3.6,35.9,15.7,49.2c29.3,31.7,82.8,24,116,2.7c49.7-31.8,67.7-99.7,43.1-152.7
	c-7.1-15.3-17.3-28.9-30-40c-10.2-8.8-22-15.7-34.7-20.2c-6.3-2.3-12.9-3.9-19.6-4.9c-3.8-0.6-8.1-1.2-12.2-1.5
	c1.1-2.9,1.9-6.1,3.1-8.8c1.9-4.7,4.3-9.1,7.2-13.3c5.7-8.5,14.1-14.9,23.9-18.1c17.8-5.4,37.1-0.3,49.9,13.2
	c18.3,19.8,17.2,50.9,31.7,73.6c9.8,15.1,25.7,25.2,43.6,27.6c17.9,2.2,35.9-3.6,49.2-15.7C483.3,263.8,475.6,210.3,454.3,177.1z"/>
</svg>
